<svg xmlns="http://www.w3.org/2000/svg" xmlns:xlink="http://www.w3.org/1999/xlink" viewBox="2394 275 1118 578">
  <defs>
    <style>
      .cls-1, .cls-10, .cls-14, .cls-16, .cls-5, .cls-8 {
        fill: none;
      }

      .cls-2 {
        fill: #fafafa;
      }

      .cls-11, .cls-3, .cls-4 {
        fill: #333;
      }

      .cls-3 {
        font-size: 30px;
      }

      .cls-3, .cls-4 {
        font-family: HiraKakuPro-W6, Hiragino Kaku Gothic Pro;
      }

      .cls-4 {
        font-size: 25px;
      }

      .cls-16, .cls-5 {
        stroke: #707070;
      }

      .cls-5 {
        stroke-width: 10px;
      }

      .cls-6 {
        fill: #707070;
      }

      .cls-7 {
        fill: #f0f0f0;
      }

      .cls-8 {
        stroke: #c3c3c3;
      }

      .cls-10, .cls-14, .cls-8 {
        stroke-width: 5px;
      }

      .cls-9 {
        clip-path: url(#clip-path);
      }

      .cls-10 {
        stroke: #c4c4c4;
      }

      .cls-12 {
        fill: #d0d0d0;
      }

      .cls-13 {
        clip-path: url(#clip-path-2);
      }

      .cls-14 {
        stroke: #f0f0f0;
      }

      .cls-15 {
        fill: #fff;
      }

      .cls-17 {
        stroke: none;
      }

      .cls-18 {
        filter: url(#長方形_13);
      }
    </style>
    <filter id="長方形_13" x="2394" y="275" width="1118" height="578" filterUnits="userSpaceOnUse">
      <feOffset dx="3" dy="3" input="SourceAlpha"/>
      <feGaussianBlur stdDeviation="3" result="blur"/>
      <feFlood flood-opacity="0.161"/>
      <feComposite operator="in" in2="blur"/>
      <feComposite in="SourceGraphic"/>
    </filter>
    <clipPath id="clip-path">
      <rect class="cls-1" width="216" height="125"/>
    </clipPath>
    <clipPath id="clip-path-2">
      <rect class="cls-1" width="145" height="18"/>
    </clipPath>
  </defs>
  <g id="グループ化_32" data-name="グループ化 32" transform="translate(1969 87)">
    <g class="cls-18" transform="matrix(1, 0, 0, 1, -1969, -87)">
      <rect id="長方形_13-2" data-name="長方形 13" class="cls-2" width="1100" height="560" rx="56" transform="translate(2400 281)"/>
    </g>
    <text id="_ビューアーの使い方" data-name="❶ ビューアーの使い方" class="cls-3" transform="translate(737 261)"><tspan x="91.405" y="26">❶ ビューアーの使い方</tspan></text>
    <text id="読み進める" class="cls-3" transform="translate(1141 646)"><tspan x="48" y="26">読み進める</tspan></text>
    <text id="文字サイズの変更や_各ページへの移動" data-name="文字サイズの変更や
各ページへの移動" class="cls-3" transform="translate(576 629)"><tspan x="52.5" y="26">文字サイズの変更や</tspan><tspan x="67.95" y="58">各ページへの移動</tspan></text>
    <text id="スクロール" class="cls-4" transform="translate(1141 348)"><tspan x="60.875" y="22">スクロール</tspan></text>
    <g id="グループ化_33" data-name="グループ化 33" transform="translate(0 -67)">
      <g id="長方形_15" data-name="長方形 15" class="cls-5" transform="translate(1219 484)">
        <rect class="cls-17" width="90" height="122" rx="45"/>
        <rect class="cls-1" x="5" y="5" width="80" height="112" rx="40"/>
      </g>
      <circle id="楕円形_5" data-name="楕円形 5" class="cls-6" cx="9" cy="9" r="9" transform="translate(1255 514)"/>
    </g>
    <g id="グループ化_30" data-name="グループ化 30" transform="translate(0 -46)">
      <rect id="長方形_16" data-name="長方形 16" class="cls-7" width="340" height="183" transform="translate(593 446)"/>
      <line id="線_4" data-name="線 4" class="cls-8" y2="52" transform="translate(907.5 482.5)"/>
      <g id="リピートグリッド_4" data-name="リピートグリッド 4" class="cls-9" transform="translate(643.5 484.5)">
        <g transform="translate(-879.5 -480.5)">
          <line id="線_5" data-name="線 5" class="cls-10" y2="125" transform="translate(882.5 480.5)"/>
        </g>
        <g transform="translate(-859.5 -480.5)">
          <line id="線_5-2" data-name="線 5" class="cls-10" y2="125" transform="translate(882.5 480.5)"/>
        </g>
        <g transform="translate(-839.5 -480.5)">
          <line id="線_5-3" data-name="線 5" class="cls-10" y2="125" transform="translate(882.5 480.5)"/>
        </g>
        <g transform="translate(-819.5 -480.5)">
          <line id="線_5-4" data-name="線 5" class="cls-10" y2="125" transform="translate(882.5 480.5)"/>
        </g>
        <g transform="translate(-799.5 -480.5)">
          <line id="線_5-5" data-name="線 5" class="cls-10" y2="125" transform="translate(882.5 480.5)"/>
        </g>
        <g transform="translate(-779.5 -480.5)">
          <line id="線_5-6" data-name="線 5" class="cls-10" y2="125" transform="translate(882.5 480.5)"/>
        </g>
        <g transform="translate(-759.5 -480.5)">
          <line id="線_5-7" data-name="線 5" class="cls-10" y2="125" transform="translate(882.5 480.5)"/>
        </g>
        <g transform="translate(-739.5 -480.5)">
          <line id="線_5-8" data-name="線 5" class="cls-10" y2="125" transform="translate(882.5 480.5)"/>
        </g>
        <g transform="translate(-719.5 -480.5)">
          <line id="線_5-9" data-name="線 5" class="cls-10" y2="125" transform="translate(882.5 480.5)"/>
        </g>
        <g transform="translate(-699.5 -480.5)">
          <line id="線_5-10" data-name="線 5" class="cls-10" y2="125" transform="translate(882.5 480.5)"/>
        </g>
        <g transform="translate(-679.5 -480.5)">
          <line id="線_5-11" data-name="線 5" class="cls-10" y2="125" transform="translate(882.5 480.5)"/>
        </g>
      </g>
      <line id="線_6" data-name="線 6" class="cls-8" y2="52" transform="translate(883.5 557.5)"/>
      <path id="長方形_17" data-name="長方形 17" class="cls-11" d="M0,0H223a0,0,0,0,1,0,0V67a5,5,0,0,1-5,5H5a5,5,0,0,1-5-5V0A0,0,0,0,1,0,0Z" transform="translate(652 446)"/>
    </g>
    <text id="画面上部のメニューバー" class="cls-4" transform="translate(602 348)"><tspan x="24.375" y="22">画面上部のメニューバー</tspan></text>
    <path id="長方形_18" data-name="長方形 18" class="cls-11" d="M0,0H90a0,0,0,0,1,0,0V17a5,5,0,0,1-5,5H5a5,5,0,0,1-5-5V0A0,0,0,0,1,0,0Z" transform="translate(718 462)"/>
    <rect id="長方形_19" data-name="長方形 19" class="cls-12" width="70" height="3" rx="1.5" transform="translate(728 477)"/>
    <g id="リピートグリッド_5" data-name="リピートグリッド 5" class="cls-13" transform="translate(690.5 410.5)">
      <g transform="translate(-849.5 -405.5)">
        <line id="線_7" data-name="線 7" class="cls-14" y2="27" transform="translate(851.5 405.5)"/>
      </g>
      <g transform="translate(-835.5 -405.5)">
        <line id="線_7-2" data-name="線 7" class="cls-14" y2="27" transform="translate(851.5 405.5)"/>
      </g>
      <g transform="translate(-821.5 -405.5)">
        <line id="線_7-3" data-name="線 7" class="cls-14" y2="27" transform="translate(851.5 405.5)"/>
      </g>
      <g transform="translate(-807.5 -405.5)">
        <line id="線_7-4" data-name="線 7" class="cls-14" y2="27" transform="translate(851.5 405.5)"/>
      </g>
      <g transform="translate(-793.5 -405.5)">
        <line id="線_7-5" data-name="線 7" class="cls-14" y2="27" transform="translate(851.5 405.5)"/>
      </g>
      <g transform="translate(-779.5 -405.5)">
        <line id="線_7-6" data-name="線 7" class="cls-14" y2="27" transform="translate(851.5 405.5)"/>
      </g>
      <g transform="translate(-765.5 -405.5)">
        <line id="線_7-7" data-name="線 7" class="cls-14" y2="27" transform="translate(851.5 405.5)"/>
      </g>
      <g transform="translate(-751.5 -405.5)">
        <line id="線_7-8" data-name="線 7" class="cls-14" y2="27" transform="translate(851.5 405.5)"/>
      </g>
      <g transform="translate(-737.5 -405.5)">
        <line id="線_7-9" data-name="線 7" class="cls-14" y2="27" transform="translate(851.5 405.5)"/>
      </g>
      <g transform="translate(-723.5 -405.5)">
        <line id="線_7-10" data-name="線 7" class="cls-14" y2="27" transform="translate(851.5 405.5)"/>
      </g>
      <g transform="translate(-709.5 -405.5)">
        <line id="線_7-11" data-name="線 7" class="cls-14" y2="27" transform="translate(851.5 405.5)"/>
      </g>
    </g>
    <circle id="楕円形_6" data-name="楕円形 6" class="cls-15" cx="8.932" cy="8.932" r="8.932" transform="translate(807.804 446.135)"/>
    <circle id="楕円形_7" data-name="楕円形 7" class="cls-15" cx="8.932" cy="8.932" r="8.932" transform="translate(840.135 446.135)"/>
    <line id="線_8" data-name="線 8" class="cls-16" x2="12" transform="translate(810.5 455.5)"/>
    <line id="線_9" data-name="線 9" class="cls-16" y2="12" transform="translate(816.5 449.5)"/>
    <line id="線_10" data-name="線 10" class="cls-16" x2="12" transform="translate(843.5 455.5)"/>
  </g>
</svg>
